<svg width="18" height="18" viewBox="0 0 18 18" fill="none" xmlns="http://www.w3.org/2000/svg">
<g clip-path="url(#clip0)">
<path d="M15.8824 3.402L12.6681 0.187697C12.6083 0.127692 12.537 0.0802692 12.4586 0.0482142C12.381 0.016536 12.2981 0.00015067 12.2143 0H3.85714C2.79202 0 1.92857 0.863449 1.92857 1.92857V16.0714C1.92857 17.1365 2.79202 18 3.85714 18H14.1429C15.208 18 16.0714 17.1365 16.0714 16.0714V3.85714C16.0705 3.68651 16.0026 3.52307 15.8824 3.402ZM12.8571 2.19473L13.8767 3.21431H12.8571V2.19473ZM14.7857 16.0714C14.7857 16.4265 14.4979 16.7143 14.1428 16.7143H3.85714C3.50208 16.7143 3.21427 16.4265 3.21427 16.0714V1.92857C3.21427 1.57352 3.50208 1.2857 3.85714 1.2857H11.5714V3.85714C11.5714 4.21219 11.8592 4.50001 12.2143 4.50001H14.7857V16.0714H14.7857Z" fill="#FAFAFA"/>
</g>
<defs>
<clipPath id="clip0">
<rect width="18" height="18" fill="white"/>
</clipPath>
</defs>
</svg>
