<svg width="75" height="75" viewBox="0 0 75 75" fill="none" xmlns="http://www.w3.org/2000/svg">
<path d="M1.98783 38.1167C1.98832 38.1167 1.98882 38.1167 1.98931 38.1167L6.90908 38.113C7.92797 38.1123 8.75326 37.2857 8.75252 36.2669C8.7481 30.1417 10.7195 24.3258 14.4533 19.4484C19.7271 12.559 27.749 8.60764 36.4617 8.60764C42.5836 8.60764 48.3884 10.5746 53.2494 14.2956C54.8604 15.529 56.3068 16.9068 57.585 18.4169L48.5001 16.8131C48.0187 16.728 47.5226 16.8379 47.1214 17.1184C46.7204 17.399 46.4476 17.8273 46.3625 18.3092L45.5072 23.1539C45.3301 24.1573 45.9999 25.1142 47.0033 25.2913L68.805 29.1403C68.9118 29.1593 69.0188 29.1684 69.1258 29.1684C69.5017 29.1684 69.8714 29.0535 70.1838 28.835C70.5848 28.5544 70.8576 28.1261 70.9427 27.6442L74.7917 5.84223C74.9688 4.83884 74.2989 3.88195 73.2956 3.70484L68.4508 2.84953C67.4455 2.67168 66.4905 3.34225 66.3134 4.34564L64.6936 13.521C62.8765 11.2673 60.7897 9.22532 58.4828 7.45936C52.108 2.57944 44.4954 0 36.4676 0C25.0483 0 14.5325 5.18126 7.61679 14.215C2.72162 20.6094 0.137259 28.237 0.142671 36.2733C0.142917 36.7625 0.33774 37.2316 0.683846 37.5775C1.02995 37.9229 1.49881 38.1167 1.98783 38.1167Z" fill="#FAFAFA"/>
<path d="M74.3159 37.4225C73.97 37.0771 73.501 36.8831 73.0122 36.8831C73.0117 36.8831 73.0112 36.8831 73.0107 36.8831L68.0909 36.8867C67.072 36.8875 66.2467 37.714 66.2475 38.7329C66.2519 44.858 64.2806 50.6739 60.5467 55.5514C55.2727 62.4408 47.2508 66.3921 38.5381 66.3921C32.4164 66.3921 26.6116 64.4252 21.7506 60.7041C20.1396 59.4707 18.6932 58.0929 17.415 56.5828L26.4999 58.1867C26.9823 58.272 27.4777 58.1621 27.8784 57.8814C28.2794 57.6007 28.5522 57.1724 28.6373 56.6906L29.4923 51.8458C29.6694 50.8424 28.9996 49.8855 27.9962 49.7084L6.19449 45.8594C5.71333 45.7746 5.21693 45.8843 4.81597 46.1647C4.415 46.4454 4.1422 46.8736 4.05709 47.3555L0.208349 69.1575C0.0312375 70.1609 0.701065 71.1178 1.70445 71.2949L6.5492 72.1502C6.65768 72.1694 6.76567 72.1787 6.87219 72.1787C7.75037 72.1787 8.52867 71.549 8.68684 70.6541L10.3067 61.4787C12.1238 63.7325 14.2105 65.7744 16.5174 67.5404C22.8917 72.4203 30.5043 74.9997 38.5324 74.9997C49.952 74.9997 60.4675 69.8185 67.383 60.7848C72.2781 54.3903 74.8625 46.7627 74.8571 38.7265C74.8568 38.2375 74.662 37.7684 74.3159 37.4225Z" fill="#FAFAFA"/>
</svg>
